<?xml version="1.0" encoding="UTF-8" standalone="no"?><!DOCTYPE svg PUBLIC "-//W3C//DTD SVG 1.1//EN" "http://www.w3.org/Graphics/SVG/1.1/DTD/svg11.dtd"><svg width="100%" height="100%" viewBox="0 0 1125 1125" version="1.1" xmlns="http://www.w3.org/2000/svg" xmlns:xlink="http://www.w3.org/1999/xlink" xml:space="preserve" xmlns:serif="http://www.serif.com/" style="fill-rule:evenodd;clip-rule:evenodd;stroke-linejoin:round;stroke-miterlimit:2;"><g><path d="M437.42,822.219c-51.628,0 -93.75,42.122 -93.75,93.728c0,51.606 42.274,93.728 93.88,93.728c51.606,0 93.598,-42.122 93.598,-93.728c0,-51.606 -42.122,-93.728 -93.728,-93.728Z" style="fill:#607d8b;fill-rule:nonzero;"/></g><g><path d="M443.193,822.436c19.944,17.166 32.574,42.6 32.574,70.92c0,51.606 -41.992,93.707 -93.598,93.707c-1.953,0 -3.885,-0.065 -5.859,-0.195c16.471,14.236 37.869,22.808 61.241,22.808c51.606,0 93.598,-42.122 93.598,-93.728c0,-49.653 -38.997,-90.516 -87.956,-93.511Z" style="fill:#516a75;fill-rule:nonzero;"/></g><path d="M437.42,875.778c-22.049,0 -40.169,18.142 -40.169,40.169c0,22.027 18.121,40.169 40.169,40.169c22.027,0 40.169,-18.142 40.169,-40.169c0,-22.027 -18.142,-40.169 -40.169,-40.169Z" style="fill:#c6dcff;fill-rule:nonzero;"/><path d="M437.42,902.557c7.53,0 13.39,5.859 13.39,13.39c0,7.53 -5.859,13.39 -13.39,13.39c-7.552,0 -13.39,-5.859 -13.39,-13.39c0,-7.53 5.838,-13.39 13.39,-13.39Z" style="fill:#607d8b;fill-rule:nonzero;"/><g><path d="M289.004,367.488l74.045,176.584c0.347,1.411 0.911,2.756 1.671,3.971l47.374,112.934l5.664,13.477l11.198,26.736l356.098,0.109c5.512,0 10.438,-3.364 12.457,-8.464l120.182,-307.118c0.651,-1.649 0.933,-3.451 0.911,-5.078c0,-7.031 -5.729,-13.151 -13.346,-13.151l-616.254,0Z" style="fill:#98bfff;fill-rule:nonzero;"/></g><path d="M549.877,367.466c-6.619,16.732 -10.352,34.896 -10.352,53.928c0,81.185 66.102,147.287 147.287,147.287c81.185,0 147.287,-66.102 147.287,-147.287c0,-19.032 -3.776,-37.174 -10.373,-53.906l-273.85,-0.022Z" style="fill:#7aacff;fill-rule:nonzero;"/><path d="M907.841,380.183l-76.562,2.409c-103.581,285.2 -249.306,270.399 -409.332,265.061l12.088,45.139l352.127,0.803l121.68,-313.411Z" style="fill:#7aacff;fill-rule:nonzero;"/><g><path d="M183.015,259.892c-7.4,0 -13.39,5.99 -13.39,13.39c0,7.4 5.99,13.39 13.39,13.39l71.441,0l108.702,259.136c0.087,0.282 0.195,0.543 0.304,0.803l61.61,146.897c0.629,1.519 1.584,2.799 2.669,3.95c0.326,0.347 0.673,0.608 1.02,0.911c0.868,0.76 1.801,1.389 2.843,1.888c0.412,0.195 0.781,0.434 1.215,0.586c1.432,0.521 2.973,0.868 4.579,0.89l348.134,0c5.512,0 10.46,-3.385 12.478,-8.507l120.508,-307.943c0.651,-1.628 0.89,-3.277 0.89,-4.883c0,-7.096 -5.707,-13.411 -13.39,-13.39l-588.889,0l-41.471,-98.915c-2.083,-4.97 -6.944,-8.203 -12.348,-8.203l-80.295,0Zm145.399,133.898l124.544,0l23.286,133.876l-91.667,0l-56.163,-133.876Zm151.693,0l117.99,0l0,133.876l-94.727,0l-23.264,-133.876Zm144.77,0l118.012,0l-23.286,133.876l-94.727,0l0,-133.876Zm145.161,0l116.428,0l-52.387,133.876l-87.326,0l23.286,-133.876Zm-374.24,160.655l85.113,0l20.964,120.508l-55.556,0l-42.101,-100.412l-8.42,-20.095Zm112.261,0l90.039,0l0,120.508l-69.097,0l-20.942,-120.508Zm116.819,0l90.061,0l-20.964,120.508l-69.097,0l0,-120.508Zm117.209,0l81.51,0l-47.157,120.508l-55.317,0l20.964,-120.508Z" style="fill:#c6dcff;fill-rule:nonzero;"/></g><path d="M550.072,367.01c-3.429,8.55 -6.12,17.513 -7.878,26.78l55.903,0l0,133.876l-12.956,0c11.61,11.111 25.022,20.312 39.735,27.17l0,-0.391l90.061,0l-2.04,11.762c9.896,-1.78 19.444,-4.492 28.559,-8.16l0.629,-3.602l7.444,0c14.41,-6.836 27.582,-15.864 38.976,-26.78l-41.753,0l23.286,-133.876l61.372,0c-1.758,-9.266 -4.449,-18.229 -7.856,-26.78l-273.481,0Zm74.805,26.78l118.012,0l-23.286,133.876l-94.727,0l0,-133.876Z" style="fill:#98bfff;fill-rule:nonzero;"/><path d="M293.084,482.787c-1.649,0.694 -3.082,1.671 -4.34,2.93c-1.237,1.259 -2.192,2.713 -2.886,4.362c-0.651,1.628 -0.998,3.342 -0.977,5.122c0,1.78 0.347,3.472 1.02,5.122l39.453,94.032c0.673,1.628 1.649,3.082 2.908,4.319c1.259,1.259 2.713,2.214 4.362,2.886c1.649,0.673 3.342,0.998 5.122,0.998c1.78,0 3.494,-0.347 5.122,-1.042c1.649,-0.694 3.082,-1.649 4.34,-2.908c1.237,-1.28 2.192,-2.734 2.865,-4.362c0.673,-1.649 0.998,-3.364 0.998,-5.122c0,-1.78 -0.347,-3.494 -1.042,-5.122l-39.431,-94.032c-0.694,-1.649 -1.671,-3.082 -2.93,-4.34c-1.259,-1.237 -2.713,-2.214 -4.34,-2.886c-1.649,-0.673 -3.364,-0.998 -5.143,-0.998c-1.758,0.022 -3.472,0.369 -5.1,1.042Z" style="fill:#c6dcff;fill-rule:nonzero;"/><path d="M336.791,674.845c-33.16,-0.043 -60.265,27.105 -60.265,60.243c0,33.16 27.105,60.265 60.243,60.265l462.174,0.109c37.131,0 66.949,29.796 66.949,66.927c0,7.4 5.99,13.39 13.39,13.39c7.4,0 13.39,-5.99 13.39,-13.39c0,-51.606 -42.122,-93.707 -93.728,-93.707l-462.153,-0.109c-18.772,0 -33.464,-14.714 -33.464,-33.485c0,-18.772 14.714,-33.485 33.464,-33.464l100.629,0.109c7.378,0 13.39,-5.99 13.39,-13.39c0,-7.4 -6.011,-13.39 -13.39,-13.39l-100.629,-0.109Z" style="fill:#c6dcff;fill-rule:nonzero;"/><g><path d="M665.046,554.445c-81.185,0 -147.287,-66.102 -147.287,-147.287c0,-81.163 66.102,-147.266 147.287,-147.266c81.185,0 147.287,66.102 147.287,147.266c0,81.185 -66.102,147.287 -147.287,147.287Z" style="fill:#a9f546;fill-rule:nonzero;"/></g><g><path d="M745.385,822.219c-51.606,0 -93.728,42.122 -93.728,93.728c0,51.606 42.253,93.728 93.88,93.728c51.584,0 93.576,-42.122 93.576,-93.728c0,-51.606 -42.122,-93.728 -93.728,-93.728Z" style="fill:#607d8b;fill-rule:nonzero;"/></g><g><path d="M751.157,822.436c19.944,17.166 32.574,42.6 32.574,70.92c0,51.606 -41.97,93.707 -93.576,93.707c-1.953,0 -3.906,-0.065 -5.859,-0.195c16.45,14.236 37.847,22.808 61.22,22.808c51.606,0 93.598,-42.122 93.598,-93.728c0,-49.653 -38.997,-90.516 -87.956,-93.511Z" style="fill:#516a75;fill-rule:nonzero;"/></g><path d="M745.385,875.778c-22.027,0 -40.169,18.142 -40.169,40.169c0,22.027 18.142,40.169 40.169,40.169c22.027,0 40.169,-18.142 40.169,-40.169c0,-22.027 -18.142,-40.169 -40.169,-40.169Z" style="fill:#c6dcff;fill-rule:nonzero;"/><path d="M745.385,902.557c7.53,0 13.39,5.859 13.39,13.39c0,7.53 -5.859,13.39 -13.39,13.39c-7.53,0 -13.39,-5.859 -13.39,-13.39c0,-7.53 5.859,-13.39 13.39,-13.39Z" style="fill:#607d8b;fill-rule:nonzero;"/><g><path d="M665.046,259.892c-81.185,0 -147.287,66.102 -147.287,147.266c0,41.602 17.405,79.167 45.247,105.968c-19.379,-24.935 -31.033,-56.141 -31.033,-90.061c0,-81.185 66.102,-147.266 147.309,-147.266c39.605,0 75.564,15.799 102.062,41.363c-26.975,-34.766 -69.01,-57.27 -116.298,-57.27Z" style="fill:#d5fca3;fill-rule:nonzero;"/></g><path d="M665.046,340.231c-1.78,0 -3.494,0.326 -5.122,1.02c-1.649,0.673 -3.103,1.628 -4.34,2.886c-1.259,1.259 -2.235,2.713 -2.908,4.362c-0.673,1.628 -1.02,3.342 -1.02,5.122l0,40.169l-40.169,0c-1.78,0 -3.494,0.326 -5.122,1.02c-1.649,0.673 -3.103,1.628 -4.362,2.886c-1.237,1.259 -2.214,2.713 -2.886,4.34c-0.694,1.649 -1.02,3.364 -1.02,5.122c0,1.78 0.326,3.494 0.998,5.143c0.694,1.628 1.649,3.082 2.908,4.34c1.259,1.259 2.713,2.214 4.362,2.908c1.628,0.673 3.342,0.998 5.122,0.998l40.169,0l0,40.169c0,1.78 0.326,3.494 1.02,5.122c0.673,1.649 1.628,3.103 2.886,4.362c1.259,1.237 2.713,2.214 4.362,2.886c1.628,0.694 3.342,1.02 5.122,1.02c1.758,0 3.472,-0.326 5.122,-1.02c1.628,-0.673 3.082,-1.649 4.34,-2.886c1.259,-1.259 2.214,-2.713 2.908,-4.34c0.673,-1.649 1.02,-3.364 1.02,-5.143l0,-40.169l40.169,0c1.78,0 3.472,-0.326 5.122,-0.998c1.628,-0.694 3.082,-1.649 4.34,-2.908c1.259,-1.259 2.214,-2.713 2.908,-4.34c0.673,-1.649 1.02,-3.364 1.02,-5.143c0,-1.758 -0.347,-3.472 -1.02,-5.122c-0.694,-1.628 -1.649,-3.082 -2.908,-4.34c-1.259,-1.259 -2.713,-2.214 -4.34,-2.886c-1.649,-0.694 -3.342,-1.02 -5.122,-1.02l-40.169,0l0,-40.169c0,-1.78 -0.347,-3.494 -1.02,-5.122c-0.694,-1.649 -1.649,-3.103 -2.908,-4.362c-1.259,-1.237 -2.713,-2.214 -4.34,-2.886c-1.649,-0.694 -3.364,-1.02 -5.122,-1.02Z" style="fill:#81cf0f;fill-rule:nonzero;"/><path d="M780.888,316.511c10.417,20.182 16.406,43.012 16.406,67.231c0,81.185 -66.124,147.266 -147.309,147.266c-46.984,0 -88.824,-22.222 -115.82,-56.597c24.479,47.439 73.937,80.035 130.881,80.035c81.207,0 147.309,-66.102 147.309,-147.287c0,-34.18 -11.827,-65.625 -31.467,-90.647Z" style="fill:#81cf0f;fill-rule:nonzero;"/></svg>